<svg viewBox="0 0 1200 400" xmlns="http://www.w3.org/2000/svg">
  <defs>
    <linearGradient id="gradient" x1="0%" y1="0%" x2="0%" y2="100%">
      <stop offset="0%" style="stop-color:#4a90e2;stop-opacity:1" />
      <stop offset="100%" style="stop-color:#7db3f5;stop-opacity:1" />
    </linearGradient>
  </defs>

  <rect width="1200" height="400" fill="url(#gradient)" />

  <path d="M0,200 C100,100 300,300 400,200 C500,100 700,300 800,200 C900,100 1100,300 1200,200" stroke="#f39c12" stroke-width="3" fill="none" opacity="0.5"/>

  <circle cx="100" cy="100" r="30" fill="white" opacity="0.3" />
  <circle cx="300" cy="300" r="20" fill="#f39c12" opacity="0.4" />
  <circle cx="500" cy="150" r="40" fill="white" opacity="0.3" />
  <circle cx="700" cy="250" r="25" fill="#f39c12" opacity="0.4" />
  <circle cx="900" cy="100" r="35" fill="white" opacity="0.3" />
  <circle cx="1100" cy="300" r="15" fill="#f39c12" opacity="0.4" />

  <polygon points="200,50 230,100 170,100" fill="white" opacity="0.3" />
  <polygon points="400,350 430,300 370,300" fill="#f39c12" opacity="0.4" />
  <polygon points="600,100 630,150 570,150" fill="white" opacity="0.3" />
  <polygon points="800,300 830,250 770,250" fill="#f39c12" opacity="0.4" />
  <polygon points="1000,50 1030,100 970,100" fill="white" opacity="0.3" />

  <polygon points="50,350 80,300 20,300" fill="#f39c12" opacity="0.4" />

  <polygon points="200,200 220,235 180,235 160,200 180,165 220,165" fill="white" opacity="0.3"/>
  <polygon points="1000,300 1020,335 980,335 960,300 980,265 1020,265" fill="#f39c12" opacity="0.4"/>

  <text x="30" y="50" font-size="24" fill="white" opacity="0.2">∫</text>
  <text x="150" y="350" font-size="24" fill="white" opacity="0.2">π</text>
  <text x="450" y="50" font-size="24" fill="white" opacity="0.2">d/dx</text>
  <text x="750" y="350" font-size="24" fill="white" opacity="0.2">∑</text>
  <text x="1050" y="50" font-size="24" fill="white" opacity="0.2">√</text>

  <text x="600" y="200" font-size="60" font-weight="bold" fill="white" text-anchor="middle">Enkel Matematik</text>
</svg>